<?xml version="1.0" encoding="UTF-8" standalone="no"?>
<!DOCTYPE svg PUBLIC "-//W3C//DTD SVG 1.1//EN"
 "http://www.w3.org/Graphics/SVG/1.1/DTD/svg11.dtd">
<!-- Generated by graphviz version 2.44.1 (20200629.0846)
 -->
<!-- Title: dependencies Pages: 1 -->
<svg width="1842pt" height="284pt"
 viewBox="0.00 0.00 1842.00 284.00" xmlns="http://www.w3.org/2000/svg" xmlns:xlink="http://www.w3.org/1999/xlink">
<g id="graph0" class="graph" transform="scale(1 1) rotate(0) translate(4 280)">
<title>dependencies</title>
<polygon fill="white" stroke="transparent" points="-4,4 -4,-280 1838,-280 1838,4 -4,4"/>
<text text-anchor="start" x="896.01" y="-42.4" font-family="sans-serif" font-weight="bold" font-size="14.00">Legend</text>
<polygon fill="#ffffb3" stroke="transparent" points="683,-10 683,-30 703,-30 703,-10 683,-10"/>
<text text-anchor="start" x="706.63" y="-15.4" font-family="sans-serif" font-size="14.00"> &#160;Declarations</text>
<polygon fill="#8dd3c7" stroke="transparent" points="796,-10 796,-30 816,-30 816,-10 796,-10"/>
<text text-anchor="start" x="819.73" y="-15.4" font-family="sans-serif" font-size="14.00"> &#160;Module</text>
<polygon fill="#80b1d3" stroke="transparent" points="882,-10 882,-30 902,-30 902,-10 882,-10"/>
<text text-anchor="start" x="905.78" y="-15.4" font-family="sans-serif" font-size="14.00"> &#160;Bootstrap</text>
<polygon fill="#fdb462" stroke="transparent" points="979,-10 979,-30 999,-30 999,-10 979,-10"/>
<text text-anchor="start" x="1002.67" y="-15.4" font-family="sans-serif" font-size="14.00"> &#160;Providers</text>
<polygon fill="#fb8072" stroke="transparent" points="1075,-10 1075,-30 1095,-30 1095,-10 1075,-10"/>
<text text-anchor="start" x="1098.73" y="-15.4" font-family="sans-serif" font-size="14.00"> &#160;Exports</text>
<g id="clust1" class="cluster">
<title>cluster_AppModule</title>
<polygon fill="none" stroke="black" stroke-dasharray="1,5" points="8,-70 8,-268 1826,-268 1826,-70 8,-70"/>
</g>
<g id="clust14" class="cluster">
<title>cluster_AppModule_bootstrap</title>
<polygon fill="none" stroke="black" points="807,-208 807,-260 931,-260 931,-208 807,-208"/>
</g>
<g id="clust15" class="cluster">
<title>cluster_AppModule_providers</title>
<polygon fill="none" stroke="black" points="1309,-78 1309,-130 1818,-130 1818,-78 1309,-78"/>
</g>
<g id="clust2" class="cluster">
<title>cluster_AppModule_declarations</title>
<polygon fill="none" stroke="black" points="16,-78 16,-130 1301,-130 1301,-78 16,-78"/>
</g>
<!-- AboutComponent -->
<g id="node1" class="node">
<title>AboutComponent</title>
<polygon fill="#ffffb3" stroke="black" points="1293.33,-122 1176.67,-122 1176.67,-86 1293.33,-86 1293.33,-122"/>
<text text-anchor="middle" x="1235" y="-99.8" font-family="Times,serif" font-size="14.00">AboutComponent</text>
</g>
<!-- AppModule -->
<g id="node10" class="node">
<title>AppModule</title>
<polygon fill="#8dd3c7" stroke="black" points="910.66,-187 907.66,-191 886.66,-191 883.66,-187 827.34,-187 827.34,-151 910.66,-151 910.66,-187"/>
<text text-anchor="middle" x="869" y="-164.8" font-family="Times,serif" font-size="14.00">AppModule</text>
</g>
<!-- AboutComponent&#45;&gt;AppModule -->
<g id="edge1" class="edge">
<title>AboutComponent&#45;&gt;AppModule</title>
<path fill="none" stroke="black" d="M1235,-122.02C1235,-139.37 1235,-163 1235,-163 1235,-163 920.98,-163 920.98,-163"/>
<polygon fill="black" stroke="black" points="920.98,-159.5 910.98,-163 920.98,-166.5 920.98,-159.5"/>
</g>
<!-- AddCourseComponent -->
<g id="node2" class="node">
<title>AddCourseComponent</title>
<polygon fill="#ffffb3" stroke="black" points="1158.6,-122 1013.4,-122 1013.4,-86 1158.6,-86 1158.6,-122"/>
<text text-anchor="middle" x="1086" y="-99.8" font-family="Times,serif" font-size="14.00">AddCourseComponent</text>
</g>
<!-- AddCourseComponent&#45;&gt;AppModule -->
<g id="edge2" class="edge">
<title>AddCourseComponent&#45;&gt;AppModule</title>
<path fill="none" stroke="black" d="M1086,-122.24C1086,-137.57 1086,-157 1086,-157 1086,-157 920.84,-157 920.84,-157"/>
<polygon fill="black" stroke="black" points="920.84,-153.5 910.84,-157 920.84,-160.5 920.84,-153.5"/>
</g>
<!-- AppComponent -->
<g id="node3" class="node">
<title>AppComponent</title>
<polygon fill="#ffffb3" stroke="black" points="995.94,-122 890.06,-122 890.06,-86 995.94,-86 995.94,-122"/>
<text text-anchor="middle" x="943" y="-99.8" font-family="Times,serif" font-size="14.00">AppComponent</text>
</g>
<!-- AppComponent&#45;&gt;AppModule -->
<g id="edge3" class="edge">
<title>AppComponent&#45;&gt;AppModule</title>
<path fill="none" stroke="black" d="M900.55,-122.11C900.55,-122.11 900.55,-140.99 900.55,-140.99"/>
<polygon fill="black" stroke="black" points="897.05,-140.99 900.55,-150.99 904.05,-140.99 897.05,-140.99"/>
</g>
<!-- CourseHomeComponent -->
<g id="node4" class="node">
<title>CourseHomeComponent</title>
<polygon fill="#ffffb3" stroke="black" points="872.7,-122 717.3,-122 717.3,-86 872.7,-86 872.7,-122"/>
<text text-anchor="middle" x="795" y="-99.8" font-family="Times,serif" font-size="14.00">CourseHomeComponent</text>
</g>
<!-- CourseHomeComponent&#45;&gt;AppModule -->
<g id="edge4" class="edge">
<title>CourseHomeComponent&#45;&gt;AppModule</title>
<path fill="none" stroke="black" d="M849.89,-122.11C849.89,-122.11 849.89,-140.99 849.89,-140.99"/>
<polygon fill="black" stroke="black" points="846.39,-140.99 849.89,-150.99 853.39,-140.99 846.39,-140.99"/>
</g>
<!-- HomeComponent -->
<g id="node5" class="node">
<title>HomeComponent</title>
<polygon fill="#ffffb3" stroke="black" points="699.55,-122 584.45,-122 584.45,-86 699.55,-86 699.55,-122"/>
<text text-anchor="middle" x="642" y="-99.8" font-family="Times,serif" font-size="14.00">HomeComponent</text>
</g>
<!-- HomeComponent&#45;&gt;AppModule -->
<g id="edge5" class="edge">
<title>HomeComponent&#45;&gt;AppModule</title>
<path fill="none" stroke="black" d="M642,-122.24C642,-137.57 642,-157 642,-157 642,-157 817.1,-157 817.1,-157"/>
<polygon fill="black" stroke="black" points="817.1,-160.5 827.1,-157 817.1,-153.5 817.1,-160.5"/>
</g>
<!-- LoginComponent -->
<g id="node6" class="node">
<title>LoginComponent</title>
<polygon fill="#ffffb3" stroke="black" points="566.28,-122 451.72,-122 451.72,-86 566.28,-86 566.28,-122"/>
<text text-anchor="middle" x="509" y="-99.8" font-family="Times,serif" font-size="14.00">LoginComponent</text>
</g>
<!-- LoginComponent&#45;&gt;AppModule -->
<g id="edge6" class="edge">
<title>LoginComponent&#45;&gt;AppModule</title>
<path fill="none" stroke="black" d="M509,-122.02C509,-139.37 509,-163 509,-163 509,-163 817,-163 817,-163"/>
<polygon fill="black" stroke="black" points="817,-166.5 827,-163 817,-159.5 817,-166.5"/>
</g>
<!-- LogoutComponent -->
<g id="node7" class="node">
<title>LogoutComponent</title>
<polygon fill="#ffffb3" stroke="black" points="433.78,-122 312.22,-122 312.22,-86 433.78,-86 433.78,-122"/>
<text text-anchor="middle" x="373" y="-99.8" font-family="Times,serif" font-size="14.00">LogoutComponent</text>
</g>
<!-- LogoutComponent&#45;&gt;AppModule -->
<g id="edge7" class="edge">
<title>LogoutComponent&#45;&gt;AppModule</title>
<path fill="none" stroke="black" d="M373,-122.11C373,-141.34 373,-169 373,-169 373,-169 817.14,-169 817.14,-169"/>
<polygon fill="black" stroke="black" points="817.14,-172.5 827.14,-169 817.14,-165.5 817.14,-172.5"/>
</g>
<!-- RegisterComponent -->
<g id="node8" class="node">
<title>RegisterComponent</title>
<polygon fill="#ffffb3" stroke="black" points="293.98,-122 166.02,-122 166.02,-86 293.98,-86 293.98,-122"/>
<text text-anchor="middle" x="230" y="-99.8" font-family="Times,serif" font-size="14.00">RegisterComponent</text>
</g>
<!-- RegisterComponent&#45;&gt;AppModule -->
<g id="edge8" class="edge">
<title>RegisterComponent&#45;&gt;AppModule</title>
<path fill="none" stroke="black" d="M230,-122.28C230,-143.32 230,-175 230,-175 230,-175 817.07,-175 817.07,-175"/>
<polygon fill="black" stroke="black" points="817.07,-178.5 827.07,-175 817.07,-171.5 817.07,-178.5"/>
</g>
<!-- TopBarComponent -->
<g id="node9" class="node">
<title>TopBarComponent</title>
<polygon fill="#ffffb3" stroke="black" points="148.1,-122 23.9,-122 23.9,-86 148.1,-86 148.1,-122"/>
<text text-anchor="middle" x="86" y="-99.8" font-family="Times,serif" font-size="14.00">TopBarComponent</text>
</g>
<!-- TopBarComponent&#45;&gt;AppModule -->
<g id="edge9" class="edge">
<title>TopBarComponent&#45;&gt;AppModule</title>
<path fill="none" stroke="black" d="M86,-122.25C86,-145.02 86,-181 86,-181 86,-181 817.18,-181 817.18,-181"/>
<polygon fill="black" stroke="black" points="817.18,-184.5 827.18,-181 817.18,-177.5 817.18,-184.5"/>
</g>
<!-- AppComponent  -->
<g id="node11" class="node">
<title>AppComponent </title>
<polygon fill="#80b1d3" stroke="black" points="923.44,-252 814.56,-252 814.56,-216 923.44,-216 923.44,-252"/>
<text text-anchor="middle" x="869" y="-229.8" font-family="Times,serif" font-size="14.00">AppComponent </text>
</g>
<!-- AppModule&#45;&gt;AppComponent  -->
<g id="edge10" class="edge">
<title>AppModule&#45;&gt;AppComponent </title>
<path fill="none" stroke="black" stroke-dasharray="1,5" d="M869,-187.11C869,-187.11 869,-205.99 869,-205.99"/>
<polygon fill="black" stroke="black" points="865.5,-205.99 869,-215.99 872.5,-205.99 865.5,-205.99"/>
</g>
<!-- AuthInterceptor -->
<g id="node12" class="node">
<title>AuthInterceptor</title>
<ellipse fill="#fdb462" stroke="black" cx="1737" cy="-104" rx="72.91" ry="18"/>
<text text-anchor="middle" x="1737" y="-99.8" font-family="Times,serif" font-size="14.00">AuthInterceptor</text>
</g>
<!-- AuthInterceptor&#45;&gt;AppModule -->
<g id="edge11" class="edge">
<title>AuthInterceptor&#45;&gt;AppModule</title>
<path fill="none" stroke="black" d="M1737,-122.25C1737,-145.02 1737,-181 1737,-181 1737,-181 920.87,-181 920.87,-181"/>
<polygon fill="black" stroke="black" points="920.87,-177.5 910.87,-181 920.87,-184.5 920.87,-177.5"/>
</g>
<!-- AuthenticationService -->
<g id="node13" class="node">
<title>AuthenticationService</title>
<ellipse fill="#fdb462" stroke="black" cx="1549" cy="-104" rx="97.27" ry="18"/>
<text text-anchor="middle" x="1549" y="-99.8" font-family="Times,serif" font-size="14.00">AuthenticationService</text>
</g>
<!-- AuthenticationService&#45;&gt;AppModule -->
<g id="edge12" class="edge">
<title>AuthenticationService&#45;&gt;AppModule</title>
<path fill="none" stroke="black" d="M1549,-122.28C1549,-143.32 1549,-175 1549,-175 1549,-175 920.77,-175 920.77,-175"/>
<polygon fill="black" stroke="black" points="920.77,-171.5 910.77,-175 920.77,-178.5 920.77,-171.5"/>
</g>
<!-- UserService -->
<g id="node14" class="node">
<title>UserService</title>
<ellipse fill="#fdb462" stroke="black" cx="1375" cy="-104" rx="58.44" ry="18"/>
<text text-anchor="middle" x="1375" y="-99.8" font-family="Times,serif" font-size="14.00">UserService</text>
</g>
<!-- UserService&#45;&gt;AppModule -->
<g id="edge13" class="edge">
<title>UserService&#45;&gt;AppModule</title>
<path fill="none" stroke="black" d="M1375,-122.11C1375,-141.34 1375,-169 1375,-169 1375,-169 920.84,-169 920.84,-169"/>
<polygon fill="black" stroke="black" points="920.84,-165.5 910.84,-169 920.84,-172.5 920.84,-165.5"/>
</g>
</g>
</svg>
