<?xml version="1.0" encoding="UTF-8" standalone="no"?>
<!DOCTYPE svg PUBLIC "-//W3C//DTD SVG 1.1//EN"
 "http://www.w3.org/Graphics/SVG/1.1/DTD/svg11.dtd">
<!-- Generated by graphviz version 2.44.1 (20200629.0846)
 -->
<!-- Title: dependencies Pages: 1 -->
<svg width="1842pt" height="284pt"
 viewBox="0.00 0.00 1842.00 284.00" xmlns="http://www.w3.org/2000/svg" xmlns:xlink="http://www.w3.org/1999/xlink">
<g id="graph0" class="graph" transform="scale(1 1) rotate(0) translate(4 280)">
<title>dependencies</title>
<polygon fill="white" stroke="transparent" points="-4,4 -4,-280 1838,-280 1838,4 -4,4"/>
<text text-anchor="start" x="896.01" y="-42.4" font-family="sans-serif" font-weight="bold" font-size="14.00">Legend</text>
<polygon fill="#ffffb3" stroke="transparent" points="683,-10 683,-30 703,-30 703,-10 683,-10"/>
<text text-anchor="start" x="706.63" y="-15.4" font-family="sans-serif" font-size="14.00"> &#160;Declarations</text>
<polygon fill="#8dd3c7" stroke="transparent" points="796,-10 796,-30 816,-30 816,-10 796,-10"/>
<text text-anchor="start" x="819.73" y="-15.4" font-family="sans-serif" font-size="14.00"> &#160;Module</text>
<polygon fill="#80b1d3" stroke="transparent" points="882,-10 882,-30 902,-30 902,-10 882,-10"/>
<text text-anchor="start" x="905.78" y="-15.4" font-family="sans-serif" font-size="14.00"> &#160;Bootstrap</text>
<polygon fill="#fdb462" stroke="transparent" points="979,-10 979,-30 999,-30 999,-10 979,-10"/>
<text text-anchor="start" x="1002.67" y="-15.4" font-family="sans-serif" font-size="14.00"> &#160;Providers</text>
<polygon fill="#fb8072" stroke="transparent" points="1075,-10 1075,-30 1095,-30 1095,-10 1075,-10"/>
<text text-anchor="start" x="1098.73" y="-15.4" font-family="sans-serif" font-size="14.00"> &#160;Exports</text>
<g id="clust1" class="cluster">
<title>cluster_AppModule</title>
<polygon fill="none" stroke="black" stroke-dasharray="1,5" points="8,-70 8,-268 1826,-268 1826,-70 8,-70"/>
</g>
<g id="clust2" class="cluster">
<title>cluster_AppModule_declarations</title>
<polygon fill="none" stroke="black" points="533,-78 533,-130 1818,-130 1818,-78 533,-78"/>
</g>
<g id="clust14" class="cluster">
<title>cluster_AppModule_bootstrap</title>
<polygon fill="none" stroke="black" points="896,-208 896,-260 1020,-260 1020,-208 896,-208"/>
</g>
<g id="clust15" class="cluster">
<title>cluster_AppModule_providers</title>
<polygon fill="none" stroke="black" points="16,-78 16,-130 525,-130 525,-78 16,-78"/>
</g>
<!-- AboutComponent -->
<g id="node1" class="node">
<title>AboutComponent</title>
<polygon fill="#ffffb3" stroke="black" points="1810.33,-122 1693.67,-122 1693.67,-86 1810.33,-86 1810.33,-122"/>
<text text-anchor="middle" x="1752" y="-99.8" font-family="Times,serif" font-size="14.00">AboutComponent</text>
</g>
<!-- AppModule -->
<g id="node10" class="node">
<title>AppModule</title>
<polygon fill="#8dd3c7" stroke="black" points="999.66,-187 996.66,-191 975.66,-191 972.66,-187 916.34,-187 916.34,-151 999.66,-151 999.66,-187"/>
<text text-anchor="middle" x="958" y="-164.8" font-family="Times,serif" font-size="14.00">AppModule</text>
</g>
<!-- AboutComponent&#45;&gt;AppModule -->
<g id="edge1" class="edge">
<title>AboutComponent&#45;&gt;AppModule</title>
<path fill="none" stroke="black" d="M1752,-122.25C1752,-145.02 1752,-181 1752,-181 1752,-181 1009.85,-181 1009.85,-181"/>
<polygon fill="black" stroke="black" points="1009.85,-177.5 999.85,-181 1009.85,-184.5 1009.85,-177.5"/>
</g>
<!-- AddCourseComponent -->
<g id="node2" class="node">
<title>AddCourseComponent</title>
<polygon fill="#ffffb3" stroke="black" points="1675.6,-122 1530.4,-122 1530.4,-86 1675.6,-86 1675.6,-122"/>
<text text-anchor="middle" x="1603" y="-99.8" font-family="Times,serif" font-size="14.00">AddCourseComponent</text>
</g>
<!-- AddCourseComponent&#45;&gt;AppModule -->
<g id="edge2" class="edge">
<title>AddCourseComponent&#45;&gt;AppModule</title>
<path fill="none" stroke="black" d="M1603,-122.28C1603,-143.32 1603,-175 1603,-175 1603,-175 1009.82,-175 1009.82,-175"/>
<polygon fill="black" stroke="black" points="1009.82,-171.5 999.82,-175 1009.82,-178.5 1009.82,-171.5"/>
</g>
<!-- AppComponent -->
<g id="node3" class="node">
<title>AppComponent</title>
<polygon fill="#ffffb3" stroke="black" points="1512.94,-122 1407.06,-122 1407.06,-86 1512.94,-86 1512.94,-122"/>
<text text-anchor="middle" x="1460" y="-99.8" font-family="Times,serif" font-size="14.00">AppComponent</text>
</g>
<!-- AppComponent&#45;&gt;AppModule -->
<g id="edge3" class="edge">
<title>AppComponent&#45;&gt;AppModule</title>
<path fill="none" stroke="black" d="M1460,-122.11C1460,-141.34 1460,-169 1460,-169 1460,-169 1009.94,-169 1009.94,-169"/>
<polygon fill="black" stroke="black" points="1009.94,-165.5 999.94,-169 1009.94,-172.5 1009.94,-165.5"/>
</g>
<!-- CourseHomeComponent -->
<g id="node4" class="node">
<title>CourseHomeComponent</title>
<polygon fill="#ffffb3" stroke="black" points="1389.7,-122 1234.3,-122 1234.3,-86 1389.7,-86 1389.7,-122"/>
<text text-anchor="middle" x="1312" y="-99.8" font-family="Times,serif" font-size="14.00">CourseHomeComponent</text>
</g>
<!-- CourseHomeComponent&#45;&gt;AppModule -->
<g id="edge4" class="edge">
<title>CourseHomeComponent&#45;&gt;AppModule</title>
<path fill="none" stroke="black" d="M1312,-122.02C1312,-139.37 1312,-163 1312,-163 1312,-163 1010,-163 1010,-163"/>
<polygon fill="black" stroke="black" points="1010,-159.5 1000,-163 1010,-166.5 1010,-159.5"/>
</g>
<!-- HomeComponent -->
<g id="node5" class="node">
<title>HomeComponent</title>
<polygon fill="#ffffb3" stroke="black" points="1216.55,-122 1101.45,-122 1101.45,-86 1216.55,-86 1216.55,-122"/>
<text text-anchor="middle" x="1159" y="-99.8" font-family="Times,serif" font-size="14.00">HomeComponent</text>
</g>
<!-- HomeComponent&#45;&gt;AppModule -->
<g id="edge5" class="edge">
<title>HomeComponent&#45;&gt;AppModule</title>
<path fill="none" stroke="black" d="M1159,-122.24C1159,-137.57 1159,-157 1159,-157 1159,-157 1010.14,-157 1010.14,-157"/>
<polygon fill="black" stroke="black" points="1010.14,-153.5 1000.14,-157 1010.14,-160.5 1010.14,-153.5"/>
</g>
<!-- LoginComponent -->
<g id="node6" class="node">
<title>LoginComponent</title>
<polygon fill="#ffffb3" stroke="black" points="1083.28,-122 968.72,-122 968.72,-86 1083.28,-86 1083.28,-122"/>
<text text-anchor="middle" x="1026" y="-99.8" font-family="Times,serif" font-size="14.00">LoginComponent</text>
</g>
<!-- LoginComponent&#45;&gt;AppModule -->
<g id="edge6" class="edge">
<title>LoginComponent&#45;&gt;AppModule</title>
<path fill="none" stroke="black" d="M984.22,-122.11C984.22,-122.11 984.22,-140.99 984.22,-140.99"/>
<polygon fill="black" stroke="black" points="980.72,-140.99 984.22,-150.99 987.72,-140.99 980.72,-140.99"/>
</g>
<!-- LogoutComponent -->
<g id="node7" class="node">
<title>LogoutComponent</title>
<polygon fill="#ffffb3" stroke="black" points="950.78,-122 829.22,-122 829.22,-86 950.78,-86 950.78,-122"/>
<text text-anchor="middle" x="890" y="-99.8" font-family="Times,serif" font-size="14.00">LogoutComponent</text>
</g>
<!-- LogoutComponent&#45;&gt;AppModule -->
<g id="edge7" class="edge">
<title>LogoutComponent&#45;&gt;AppModule</title>
<path fill="none" stroke="black" d="M933.53,-122.11C933.53,-122.11 933.53,-140.99 933.53,-140.99"/>
<polygon fill="black" stroke="black" points="930.03,-140.99 933.53,-150.99 937.03,-140.99 930.03,-140.99"/>
</g>
<!-- RegisterComponent -->
<g id="node8" class="node">
<title>RegisterComponent</title>
<polygon fill="#ffffb3" stroke="black" points="810.98,-122 683.02,-122 683.02,-86 810.98,-86 810.98,-122"/>
<text text-anchor="middle" x="747" y="-99.8" font-family="Times,serif" font-size="14.00">RegisterComponent</text>
</g>
<!-- RegisterComponent&#45;&gt;AppModule -->
<g id="edge8" class="edge">
<title>RegisterComponent&#45;&gt;AppModule</title>
<path fill="none" stroke="black" d="M747,-122.24C747,-137.57 747,-157 747,-157 747,-157 906.31,-157 906.31,-157"/>
<polygon fill="black" stroke="black" points="906.31,-160.5 916.31,-157 906.31,-153.5 906.31,-160.5"/>
</g>
<!-- TopBarComponent -->
<g id="node9" class="node">
<title>TopBarComponent</title>
<polygon fill="#ffffb3" stroke="black" points="665.1,-122 540.9,-122 540.9,-86 665.1,-86 665.1,-122"/>
<text text-anchor="middle" x="603" y="-99.8" font-family="Times,serif" font-size="14.00">TopBarComponent</text>
</g>
<!-- TopBarComponent&#45;&gt;AppModule -->
<g id="edge9" class="edge">
<title>TopBarComponent&#45;&gt;AppModule</title>
<path fill="none" stroke="black" d="M603,-122.02C603,-139.37 603,-163 603,-163 603,-163 906.23,-163 906.23,-163"/>
<polygon fill="black" stroke="black" points="906.23,-166.5 916.23,-163 906.23,-159.5 906.23,-166.5"/>
</g>
<!-- AppComponent  -->
<g id="node11" class="node">
<title>AppComponent </title>
<polygon fill="#80b1d3" stroke="black" points="1012.44,-252 903.56,-252 903.56,-216 1012.44,-216 1012.44,-252"/>
<text text-anchor="middle" x="958" y="-229.8" font-family="Times,serif" font-size="14.00">AppComponent </text>
</g>
<!-- AppModule&#45;&gt;AppComponent  -->
<g id="edge10" class="edge">
<title>AppModule&#45;&gt;AppComponent </title>
<path fill="none" stroke="black" stroke-dasharray="1,5" d="M958,-187.11C958,-187.11 958,-205.99 958,-205.99"/>
<polygon fill="black" stroke="black" points="954.5,-205.99 958,-215.99 961.5,-205.99 954.5,-205.99"/>
</g>
<!-- AuthInterceptor -->
<g id="node12" class="node">
<title>AuthInterceptor</title>
<ellipse fill="#fdb462" stroke="black" cx="444" cy="-104" rx="72.91" ry="18"/>
<text text-anchor="middle" x="444" y="-99.8" font-family="Times,serif" font-size="14.00">AuthInterceptor</text>
</g>
<!-- AuthInterceptor&#45;&gt;AppModule -->
<g id="edge11" class="edge">
<title>AuthInterceptor&#45;&gt;AppModule</title>
<path fill="none" stroke="black" d="M444,-122.11C444,-141.34 444,-169 444,-169 444,-169 905.94,-169 905.94,-169"/>
<polygon fill="black" stroke="black" points="905.94,-172.5 915.94,-169 905.94,-165.5 905.94,-172.5"/>
</g>
<!-- AuthenticationService -->
<g id="node13" class="node">
<title>AuthenticationService</title>
<ellipse fill="#fdb462" stroke="black" cx="256" cy="-104" rx="97.27" ry="18"/>
<text text-anchor="middle" x="256" y="-99.8" font-family="Times,serif" font-size="14.00">AuthenticationService</text>
</g>
<!-- AuthenticationService&#45;&gt;AppModule -->
<g id="edge12" class="edge">
<title>AuthenticationService&#45;&gt;AppModule</title>
<path fill="none" stroke="black" d="M256,-122.28C256,-143.32 256,-175 256,-175 256,-175 906.19,-175 906.19,-175"/>
<polygon fill="black" stroke="black" points="906.19,-178.5 916.19,-175 906.19,-171.5 906.19,-178.5"/>
</g>
<!-- UserService -->
<g id="node14" class="node">
<title>UserService</title>
<ellipse fill="#fdb462" stroke="black" cx="82" cy="-104" rx="58.44" ry="18"/>
<text text-anchor="middle" x="82" y="-99.8" font-family="Times,serif" font-size="14.00">UserService</text>
</g>
<!-- UserService&#45;&gt;AppModule -->
<g id="edge13" class="edge">
<title>UserService&#45;&gt;AppModule</title>
<path fill="none" stroke="black" d="M82,-122.25C82,-145.02 82,-181 82,-181 82,-181 906.34,-181 906.34,-181"/>
<polygon fill="black" stroke="black" points="906.34,-184.5 916.34,-181 906.34,-177.5 906.34,-184.5"/>
</g>
</g>
</svg>
